<svg width="24" height="25" viewBox="0 0 24 25" fill="none" xmlns="http://www.w3.org/2000/svg">
<path d="M5.50586 16.4192L8.02986 9.45624C8.48986 8.48924 9.19186 7.69024 9.99686 9.60724C10.7399 11.3772 11.8469 14.6172 12.5019 16.4222M6.65186 13.4292H11.3209" stroke="#F9F9F9" stroke-width="1.5" stroke-linecap="round" stroke-linejoin="round"/>
<path d="M3.464 4.74525C2 6.06325 2 8.18525 2 12.4272C2 16.6692 2 18.7912 3.464 20.1092C4.93 21.4272 7.286 21.4272 12 21.4272C16.714 21.4272 19.071 21.4272 20.535 20.1092C21.999 18.7912 22 16.6692 22 12.4272C22 8.18525 22 6.06325 20.535 4.74525C19.072 3.42725 16.714 3.42725 12 3.42725C7.286 3.42725 4.929 3.42725 3.464 4.74525Z" stroke="#F9F9F9" stroke-width="1.5" stroke-linecap="round" stroke-linejoin="round"/>
<path d="M18.4839 9.41431V12.4093M18.4839 12.4093V16.3523M18.4839 12.4093H16.4659C16.2259 12.4093 15.9879 12.4533 15.7639 12.5403C14.0709 13.1973 14.0709 15.6403 15.7639 16.2973C15.9889 16.3843 16.2259 16.4283 16.4659 16.4283H18.4839" stroke="#F9F9F9" stroke-width="1.5" stroke-linecap="round" stroke-linejoin="round"/>
</svg>
