<svg width="24" height="25" viewBox="0 0 24 25" fill="none" xmlns="http://www.w3.org/2000/svg">
<path d="M8 12.2136C7.71667 12.2136 7.47933 12.3096 7.288 12.5016C7.09667 12.6936 7.00067 12.931 7 13.2136V16.2136C7 16.497 7.096 16.7346 7.288 16.9266C7.48 17.1186 7.71733 17.2143 8 17.2136C8.28267 17.213 8.52033 17.117 8.713 16.9256C8.90567 16.7343 9.00133 16.497 9 16.2136V13.2136C9 12.9303 8.904 12.693 8.712 12.5016C8.52 12.3103 8.28267 12.2143 8 12.2136ZM16 7.21362C15.7167 7.21362 15.4793 7.30962 15.288 7.50162C15.0967 7.69362 15.0007 7.93096 15 8.21362V16.2136C15 16.497 15.096 16.7346 15.288 16.9266C15.48 17.1186 15.7173 17.2143 16 17.2136C16.2827 17.213 16.5203 17.117 16.713 16.9256C16.9057 16.7343 17.0013 16.497 17 16.2136V8.21362C17 7.93029 16.904 7.69296 16.712 7.50162C16.52 7.31029 16.2827 7.21429 16 7.21362ZM12 14.2136C11.7167 14.2136 11.4793 14.3096 11.288 14.5016C11.0967 14.6936 11.0007 14.931 11 15.2136V16.2136C11 16.497 11.096 16.7346 11.288 16.9266C11.48 17.1186 11.7173 17.2143 12 17.2136C12.2827 17.213 12.5203 17.117 12.713 16.9256C12.9057 16.7343 13.0013 16.497 13 16.2136V15.2136C13 14.9303 12.904 14.693 12.712 14.5016C12.52 14.3103 12.2827 14.2143 12 14.2136ZM5 21.2136C4.45 21.2136 3.97933 21.018 3.588 20.6266C3.19667 20.2353 3.00067 19.7643 3 19.2136V5.21362C3 4.66362 3.196 4.19296 3.588 3.80162C3.98 3.41029 4.45067 3.21429 5 3.21362H19C19.55 3.21362 20.021 3.40962 20.413 3.80162C20.805 4.19362 21.0007 4.66429 21 5.21362V19.2136C21 19.7636 20.8043 20.2346 20.413 20.6266C20.0217 21.0186 19.5507 21.2143 19 21.2136H5ZM5 19.2136H19V5.21362H5V19.2136ZM12 12.2136C12.2833 12.2136 12.521 12.1176 12.713 11.9256C12.905 11.7336 13.0007 11.4963 13 11.2136C12.9993 10.931 12.9033 10.6936 12.712 10.5016C12.5207 10.3096 12.2833 10.2136 12 10.2136C11.7167 10.2136 11.4793 10.3096 11.288 10.5016C11.0967 10.6936 11.0007 10.931 11 11.2136C10.9993 11.4963 11.0953 11.734 11.288 11.9266C11.4807 12.1193 11.718 12.215 12 12.2136Z" fill="#F9F9F9"/>
</svg>
