<svg width="25" height="21" viewBox="0 0 25 21" fill="none" xmlns="http://www.w3.org/2000/svg">
<path d="M3.76359 15.4424C2.9211 16.1568 2.9211 17.3149 3.76359 18.0293C4.60609 18.7436 5.97204 18.7436 6.81453 18.0293L3.76359 15.4424ZM24.0767 2.63521C24.0767 1.62498 23.1108 0.80603 21.9194 0.806031L2.50334 0.80603C1.31188 0.80603 0.346004 1.62498 0.346004 2.63521C0.346004 3.64544 1.31188 4.46439 2.50334 4.46439L19.762 4.46439L19.762 19.0978C19.762 20.108 20.7279 20.927 21.9194 20.927C23.1108 20.927 24.0767 20.108 24.0767 19.0978L24.0767 2.63521ZM6.81453 18.0293L23.4448 3.92863L20.3939 1.34178L3.76359 15.4424L6.81453 18.0293Z" fill="#F9F9F9"/>
</svg>
