<svg width="28" height="28" viewBox="0 0 28 28" fill="none" xmlns="http://www.w3.org/2000/svg">
<path d="M20.9997 15.1667V12.8334H25.6663V15.1667H20.9997ZM22.3997 23.3334L18.6663 20.5334L20.0663 18.6667L23.7997 21.4667L22.3997 23.3334ZM20.0663 9.33341L18.6663 7.46675L22.3997 4.66675L23.7997 6.53341L20.0663 9.33341ZM5.83301 22.1667V17.5001H4.66634C4.02467 17.5001 3.47556 17.2718 3.01901 16.8152C2.56245 16.3587 2.33379 15.8092 2.33301 15.1667V12.8334C2.33301 12.1917 2.56167 11.6426 3.01901 11.1861C3.47634 10.7295 4.02545 10.5009 4.66634 10.5001H9.33301L15.1663 7.00008V21.0001L9.33301 17.5001H8.16634V22.1667H5.83301ZM12.833 16.8584V11.1417L9.97468 12.8334H4.66634V15.1667H9.97468L12.833 16.8584ZM16.333 17.9084V10.0917C16.858 10.5584 17.2811 11.1274 17.6023 11.7986C17.9236 12.4698 18.0838 13.2036 18.083 14.0001C18.0822 14.7965 17.9216 15.5307 17.6012 16.2027C17.2807 16.8747 16.858 17.4433 16.333 17.9084Z" fill="#F9F9F9"/>
</svg>
