<svg width="28" height="29" viewBox="0 0 28 29" fill="none" xmlns="http://www.w3.org/2000/svg">
<path d="M24.5 4.41362V24.0136C24.5 24.1993 24.4263 24.3773 24.295 24.5086C24.1637 24.6399 23.9857 24.7136 23.8 24.7136H4.2C4.01435 24.7136 3.8363 24.6399 3.70503 24.5086C3.57375 24.3773 3.5 24.1993 3.5 24.0136V4.41362C3.5 4.22797 3.57375 4.04992 3.70503 3.91865C3.8363 3.78737 4.01435 3.71362 4.2 3.71362H23.8C23.9857 3.71362 24.1637 3.78737 24.295 3.91865C24.4263 4.04992 24.5 4.22797 24.5 4.41362Z" stroke="#F9F9F9" stroke-width="1.5" stroke-linecap="round" stroke-linejoin="round"/>
<path d="M11.5477 10.1454C11.4413 10.0845 11.3208 10.0527 11.1982 10.053C11.0756 10.0533 10.9553 10.0858 10.8492 10.1472C10.7431 10.2086 10.6551 10.2968 10.5938 10.403C10.5325 10.5091 10.5002 10.6295 10.5 10.7521V17.6739C10.5 17.7966 10.5321 17.9171 10.5933 18.0234C10.6545 18.1297 10.7426 18.2181 10.8487 18.2797C10.9548 18.3412 11.0752 18.3738 11.1979 18.3742C11.3206 18.3746 11.4412 18.3427 11.5477 18.2818L17.6027 14.8214C17.7098 14.7602 17.7989 14.6717 17.8609 14.565C17.9228 14.4582 17.9555 14.337 17.9555 14.2136C17.9555 14.0902 17.9228 13.9689 17.8609 13.8622C17.7989 13.7554 17.7098 13.667 17.6027 13.6058L11.5477 10.1454Z" stroke="#F9F9F9" stroke-width="1.5" stroke-linecap="round" stroke-linejoin="round"/>
</svg>
