<svg width="20" height="20" viewBox="0 0 20 20" fill="none" xmlns="http://www.w3.org/2000/svg">
<path d="M9.9974 18.3337C14.5998 18.3337 18.3307 14.6027 18.3307 10.0003C18.3307 5.39795 14.5998 1.66699 9.9974 1.66699C5.39502 1.66699 1.66406 5.39795 1.66406 10.0003C1.66406 14.6027 5.39502 18.3337 9.9974 18.3337Z" stroke="#F9F9F9" stroke-width="1.5"/>
<path d="M12.875 10.3287C12.7487 10.8509 12.1521 11.22 10.959 11.9582C9.80548 12.6717 9.22881 13.0285 8.76398 12.8851C8.57181 12.8258 8.39681 12.7132 8.25558 12.558C7.91406 12.1828 7.91406 11.4551 7.91406 9.99967C7.91406 8.54426 7.91406 7.81649 8.25558 7.4413C8.39681 7.28618 8.57181 7.17357 8.76398 7.11428C9.22881 6.97087 9.80548 7.32765 10.959 8.0412C12.1521 8.77934 12.7487 9.14842 12.875 9.67067C12.9271 9.88626 12.9271 10.1131 12.875 10.3287Z" stroke="#F9F9F9" stroke-width="1.5" stroke-linejoin="round"/>
</svg>
