<svg width="49" height="48" viewBox="0 0 49 48" fill="none" xmlns="http://www.w3.org/2000/svg">
<path d="M12.8157 17.9769C14.4049 17.9769 15.9291 17.3456 17.0529 16.2218C18.1766 15.098 18.808 13.5739 18.808 11.9846M12.8157 17.9769C11.2264 17.9769 9.70224 17.3456 8.57847 16.2218C7.45469 15.098 6.82336 13.5739 6.82336 11.9846M12.8157 17.9769V23.9692M18.808 11.9846C18.808 10.3954 18.1766 8.87119 17.0529 7.74741C15.9291 6.62364 14.4049 5.99231 12.8157 5.99231M18.808 11.9846H24.8003M12.8157 5.99231C11.2264 5.99231 9.70224 6.62364 8.57847 7.74741C7.45469 8.87119 6.82336 10.3954 6.82336 11.9846M12.8157 5.99231V0M6.82336 11.9846H0.831055M4.82593 3.99487L8.8208 7.98974M16.8105 15.9795L20.8054 19.9744M20.8054 3.99487L16.8105 7.98974M8.8208 15.9795L4.82593 19.9744M36.7849 23.9692C38.3742 23.9692 39.8983 23.3379 41.0221 22.2141C42.1459 21.0903 42.7772 19.5662 42.7772 17.9769M36.7849 23.9692C35.1956 23.9692 33.6715 23.3379 32.5477 22.2141C31.4239 21.0903 30.7926 19.5662 30.7926 17.9769M36.7849 23.9692V29.9615M42.7772 17.9769C42.7772 16.3877 42.1459 14.8635 41.0221 13.7397C39.8983 12.6159 38.3742 11.9846 36.7849 11.9846M42.7772 17.9769H48.7695M36.7849 11.9846C35.1956 11.9846 33.6715 12.6159 32.5477 13.7397C31.4239 14.8635 30.7926 16.3877 30.7926 17.9769M36.7849 11.9846V5.99231M30.7926 17.9769H24.8003M28.7952 9.98718L32.79 13.9821M40.7798 21.9718L44.7746 25.9667M44.7746 9.98718L40.7798 13.9821M32.79 21.9718L28.7952 25.9667M18.808 41.9462C20.3972 41.9462 21.9214 41.3148 23.0452 40.191C24.169 39.0673 24.8003 37.5431 24.8003 35.9538M18.808 41.9462C17.2187 41.9462 15.6946 41.3148 14.5708 40.191C13.447 39.0673 12.8157 37.5431 12.8157 35.9538M18.808 41.9462V47.9385M24.8003 35.9538C24.8003 34.3646 24.169 32.8404 23.0452 31.7166C21.9214 30.5929 20.3972 29.9615 18.808 29.9615M24.8003 35.9538H30.7926M18.808 29.9615C17.2187 29.9615 15.6946 30.5929 14.5708 31.7166C13.447 32.8404 12.8157 34.3646 12.8157 35.9538M18.808 29.9615V23.9692M12.8157 35.9538H6.82336M10.8182 27.9641L14.8131 31.959M22.8028 39.9487L26.7977 43.9436M26.7977 27.9641L22.8028 31.959M14.8131 39.9487L10.8182 43.9436" stroke="#F9F9F9" stroke-width="2"/>
</svg>
